<svg width="300" height="50" viewBox="0 0 300 50" fill="none" xmlns="http://www.w3.org/2000/svg">
<rect width="300" height="50" fill="#151B28"/>
<path d="M65.0567 18.2549V21.465H64.6699C62.3532 21.465 60.4659 22.3971 59.0078 24.2574C57.6348 26.0326 56.9502 28.1462 56.9502 30.6002V40.0371H53.7324V18.5952H56.9502V23.8706C57.6348 21.639 59.1238 19.9934 61.4134 18.9356C62.3571 18.4831 63.498 18.2549 64.8401 18.2549H65.0567Z" fill="white"/>
<path d="M78.0951 37.4613C80.9823 37.4613 83.0553 36.2623 84.3142 33.8644H87.8259C87.0834 35.8098 85.9037 37.382 84.291 38.5829C82.6763 39.7799 80.5955 40.3774 78.0487 40.3774C74.8193 40.3774 72.1893 39.308 70.1589 37.1673C68.1825 35.0788 67.1963 32.4624 67.1963 29.3161C67.1963 26.1447 68.14 23.5283 70.0274 21.465C72.0269 19.3262 74.6298 18.2549 77.8321 18.2549C81.0345 18.2549 83.6354 19.3262 85.6369 21.465C87.5243 23.5283 88.4679 26.1447 88.4679 29.3161V30.6002H70.4992C70.7313 32.5765 71.5164 34.2048 72.8584 35.4888C74.2295 36.8038 75.9757 37.4613 78.0951 37.4613ZM77.8321 21.171C75.8616 21.171 74.2043 21.786 72.8584 23.012C71.5995 24.1839 70.8279 25.7116 70.5456 27.5989H85.1264C84.8363 25.7116 84.0666 24.1839 82.8136 23.012C81.4676 21.786 79.8065 21.171 77.8321 21.171Z" fill="white"/>
<path d="M105.022 24.3424C104.738 22.1109 102.943 20.9931 99.6383 20.9931C96.3374 20.9931 94.6878 22.0258 94.6878 24.0872C94.6878 24.9439 95.0379 25.5936 95.7398 26.0364C96.4398 26.4812 97.3197 26.8467 98.3775 27.1348C99.4334 27.4191 100.584 27.6821 101.827 27.9238C103.069 28.1675 104.219 28.5098 105.277 28.9526C106.339 29.3974 107.219 30.0046 107.915 30.7781C108.615 31.5477 108.967 32.6036 108.967 33.9495C108.967 36.0341 108.18 37.6276 106.608 38.7298C105.039 39.8282 102.91 40.3774 100.218 40.3774C97.3603 40.3774 95.0901 39.6638 93.4038 38.2348C91.8568 36.9778 91.0252 35.3341 90.9131 33.3075H94.2624C94.4635 35.278 95.5774 36.6065 97.604 37.2911C98.3466 37.5231 99.0814 37.6392 99.8085 37.6392C100.539 37.6392 101.22 37.5966 101.851 37.5077C102.479 37.4206 103.092 37.264 103.692 37.0358C105.068 36.4944 105.757 35.5661 105.757 34.2512C105.757 33.3655 105.405 32.6867 104.705 32.2168C104.003 31.743 103.123 31.3563 102.067 31.0566C101.009 30.7529 99.8569 30.4803 98.6096 30.2366C97.3661 29.9949 96.2155 29.6604 95.1597 29.2311C94.1019 28.8037 93.222 28.2178 92.522 27.4752C91.82 26.7287 91.47 25.6961 91.47 24.3811C91.47 22.4377 92.1758 20.9312 93.5894 19.8638C95.0069 18.7925 97.1031 18.2549 99.8781 18.2549C102.508 18.2549 104.581 18.8853 106.097 20.1423C107.354 21.2 108.085 22.6001 108.286 24.3424H105.022Z" fill="white"/>
<path d="M115.403 40.037V21.4262H111.025V18.5951H115.403V10.9219H118.621V18.5951H123.549V21.4262H118.621V40.037H115.403Z" fill="white"/>
<path d="M143.794 36.6027C142.077 39.1204 139.516 40.3774 136.113 40.3774C133.023 40.3774 130.507 39.308 128.563 37.1673C126.676 35.0479 125.732 32.4315 125.732 29.3161C125.732 26.2027 126.676 23.5844 128.563 21.465C130.507 19.3262 133.092 18.2549 136.322 18.2549C139.555 18.2549 142.046 19.5273 143.794 22.0683V18.5952H147.004V40.0371H143.794V36.6027ZM136.546 37.4613C138.861 37.4613 140.688 36.6626 142.03 35.0634C143.318 33.5473 143.964 31.6328 143.964 29.3161C143.964 27.0014 143.318 25.085 142.03 23.5689C140.688 21.9716 138.861 21.171 136.546 21.171C134.257 21.171 132.396 21.9716 130.969 23.5689C129.623 25.085 128.95 27.0014 128.95 29.3161C128.95 31.6328 129.623 33.5473 130.969 35.0634C132.396 36.6626 134.257 37.4613 136.546 37.4613Z" fill="white"/>
<path d="M170.548 18.5957L162.186 40.0375H158.411L150.011 18.5957H153.523L160.298 36.6031L167.036 18.5957H170.548Z" fill="white"/>
<path d="M183.118 37.4613C186.005 37.4613 188.078 36.2623 189.337 33.8644H192.848C192.106 35.8098 190.926 37.382 189.313 38.5829C187.699 39.7799 185.618 40.3774 183.071 40.3774C179.842 40.3774 177.212 39.308 175.181 37.1673C173.205 35.0788 172.219 32.4624 172.219 29.3161C172.219 26.1447 173.162 23.5283 175.05 21.465C177.049 19.3262 179.652 18.2549 182.855 18.2549C186.057 18.2549 188.658 19.3262 190.659 21.465C192.547 23.5283 193.49 26.1447 193.49 29.3161V30.6002H175.522C175.754 32.5765 176.539 34.2048 177.881 35.4888C179.252 36.8038 180.998 37.4613 183.118 37.4613ZM182.855 21.171C180.884 21.171 179.227 21.786 177.881 23.012C176.622 24.1839 175.85 25.7116 175.568 27.5989H190.149C189.859 25.7116 189.089 24.1839 187.836 23.012C186.49 21.786 184.829 21.171 182.855 21.171Z" fill="white"/>
<path d="M208.76 18.2549V21.465H208.373C206.056 21.465 204.169 22.3971 202.711 24.2574C201.338 26.0326 200.653 28.1462 200.653 30.6002V40.0371H197.436V18.5952H200.653V23.8706C201.338 21.639 202.827 19.9934 205.117 18.9356C206.06 18.4831 207.201 18.2549 208.543 18.2549H208.76Z" fill="white"/>
<path d="M224.838 24.3424C224.554 22.1109 222.76 20.9931 219.455 20.9931C216.154 20.9931 214.504 22.0258 214.504 24.0872C214.504 24.9439 214.854 25.5936 215.556 26.0364C216.256 26.4812 217.136 26.8467 218.194 27.1348C219.25 27.4191 220.4 27.6821 221.644 27.9238C222.885 28.1675 224.036 28.5098 225.094 28.9526C226.155 29.3974 227.035 30.0046 227.731 30.7781C228.431 31.5477 228.783 32.6036 228.783 33.9495C228.783 36.0341 227.996 37.6276 226.424 38.7298C224.856 39.8282 222.727 40.3774 220.035 40.3774C217.177 40.3774 214.906 39.6638 213.22 38.2348C211.673 36.9778 210.842 35.3341 210.729 33.3075H214.079C214.28 35.278 215.394 36.6065 217.42 37.2911C218.163 37.5231 218.898 37.6392 219.625 37.6392C220.356 37.6392 221.037 37.5966 221.667 37.5077C222.295 37.4206 222.908 37.264 223.508 37.0358C224.885 36.4944 225.573 35.5661 225.573 34.2512C225.573 33.3655 225.221 32.6867 224.521 32.2168C223.819 31.743 222.939 31.3563 221.884 31.0566C220.826 30.7529 219.673 30.4803 218.426 30.2366C217.183 29.9949 216.032 29.6604 214.976 29.2311C213.918 28.8037 213.038 28.2178 212.338 27.4752C211.636 26.7287 211.286 25.6961 211.286 24.3811C211.286 22.4377 211.992 20.9312 213.406 19.8638C214.823 18.7925 216.92 18.2549 219.695 18.2549C222.324 18.2549 224.397 18.8853 225.914 20.1423C227.171 21.2 227.902 22.6001 228.103 24.3424H224.838Z" fill="white"/>
<path d="M242.468 37.4613C245.355 37.4613 247.428 36.2623 248.687 33.8644H252.199C251.456 35.8098 250.277 37.382 248.664 38.5829C247.049 39.7799 244.969 40.3774 242.422 40.3774C239.192 40.3774 236.562 39.308 234.532 37.1673C232.556 35.0788 231.569 32.4624 231.569 29.3161C231.569 26.1447 232.513 23.5283 234.4 21.465C236.4 19.3262 239.003 18.2549 242.205 18.2549C245.408 18.2549 248.008 19.3262 250.01 21.465C251.897 23.5283 252.841 26.1447 252.841 29.3161V30.6002H234.872C235.104 32.5765 235.889 34.2048 237.231 35.4888C238.603 36.8038 240.349 37.4613 242.468 37.4613ZM242.205 21.171C240.235 21.171 238.577 21.786 237.231 23.012C235.973 24.1839 235.201 25.7116 234.919 27.5989H249.499C249.209 25.7116 248.44 24.1839 247.187 23.012C245.841 21.786 244.18 21.171 242.205 21.171Z" fill="white"/>
</svg>
